<svg width="35" height="35" viewBox="0 0 35 35" fill="none" xmlns="http://www.w3.org/2000/svg">
<path d="M17.7335 15.8521C17.5876 15.8375 17.4126 15.8375 17.2522 15.8521C13.7813 15.7354 11.0251 12.8917 11.0251 9.39166C11.0251 5.81874 13.9126 2.91666 17.5001 2.91666C21.0731 2.91666 23.9751 5.81874 23.9751 9.39166C23.9606 12.8917 21.2043 15.7354 17.7335 15.8521Z" stroke="white" stroke-width="1.5" stroke-linecap="round" stroke-linejoin="round"/>
<path d="M10.4416 21.2333C6.91245 23.5958 6.91245 27.4458 10.4416 29.7938C14.452 32.4771 21.0292 32.4771 25.0396 29.7938C28.5687 27.4313 28.5687 23.5813 25.0396 21.2333C21.0437 18.5646 14.4666 18.5646 10.4416 21.2333Z" stroke="white" stroke-width="1.5" stroke-linecap="round" stroke-linejoin="round"/>
</svg>
