<svg width="35" height="35" viewBox="0 0 35 35" fill="none" xmlns="http://www.w3.org/2000/svg">
<path d="M26.9792 29.5313H21.1458C20.5479 29.5313 20.0521 29.0354 20.0521 28.4375C20.0521 27.8396 20.5479 27.3438 21.1458 27.3438H26.9792C27.5771 27.3438 28.0729 27.8396 28.0729 28.4375C28.0729 29.0354 27.5771 29.5313 26.9792 29.5313Z" fill="white"/>
<path d="M24.0625 32.4479C23.4646 32.4479 22.9688 31.9521 22.9688 31.3542V25.5208C22.9688 24.9229 23.4646 24.4271 24.0625 24.4271C24.6604 24.4271 25.1563 24.9229 25.1563 25.5208V31.3542C25.1563 31.9521 24.6604 32.4479 24.0625 32.4479Z" fill="white"/>
<path d="M17.7343 16.9458C17.6906 16.9458 17.6614 16.9458 17.6177 16.9458C17.5448 16.9312 17.4427 16.9312 17.3552 16.9458C13.126 16.8146 9.93224 13.4896 9.93224 9.39166C9.91765 7.37916 10.7052 5.48332 12.1343 4.05416C13.5635 2.62499 15.4593 1.82291 17.4864 1.82291C21.6573 1.82291 25.0552 5.22082 25.0552 9.39166C25.0552 13.4896 21.8614 16.8 17.7781 16.9458C17.7635 16.9458 17.7489 16.9458 17.7343 16.9458ZM17.4864 4.01041C16.0427 4.01041 14.701 4.57916 13.6802 5.58541C12.6739 6.60624 12.1197 7.94791 12.1197 9.37707C12.1197 12.2937 14.3947 14.6562 17.2968 14.7437C17.3843 14.7292 17.5739 14.7292 17.7635 14.7437C20.6364 14.6125 22.8677 12.2646 22.8677 9.37707C22.8677 6.43124 20.4468 4.01041 17.4864 4.01041Z" fill="white"/>
<path d="M17.4857 32.8999C14.5107 32.8999 11.6961 32.127 9.5669 30.6978C7.53982 29.3415 6.43149 27.4895 6.43149 25.4915C6.43149 23.4936 7.5544 21.6561 9.5669 20.3145C13.9273 17.3978 21.0149 17.3978 25.3753 20.3145C25.8711 20.6499 26.017 21.3353 25.6815 21.8311C25.3461 22.3415 24.6607 22.4728 24.1649 22.1374C20.5336 19.7165 14.4086 19.7165 10.7773 22.1374C9.37732 23.0707 8.61899 24.252 8.61899 25.4915C8.61899 26.7311 9.37732 27.9415 10.7773 28.8749C12.5419 30.0561 14.919 30.6978 17.4711 30.6978C18.069 30.6978 18.5649 31.1936 18.5649 31.7915C18.5649 32.3895 18.0836 32.8999 17.4857 32.8999Z" fill="white"/>
</svg>
